<svg xmlns="http://www.w3.org/2000/svg" id="Layer_1" style="" viewBox="0 0 52 52" x="0px" y="0px" xmlns:xml="http://www.w3.org/XML/1998/namespace" xml:space="preserve" version="1.1">
<style type="text/css">
              .st0{fill:#54698D;}
</style>
<g>
<path class="st0" d="M 21.4 11.9 c 4.8 0 9.5 0.1 14.3 0 c 1.7 0 3 0.4 3.8 1.9 c 2 4.1 5.6 6.1 9.8 7 c 2.2 0.5 2.7 1.6 2.5 3.6 c -0.2 1.7 0 3.4 -0.2 5.1 c 0 0.6 -0.3 1.3 -1 1.6 c -0.8 0.3 -1.1 -0.4 -1.6 -0.9 c -4.6 -5.1 -10.2 -4.8 -13.9 0.9 c -0.8 1.2 -1.6 1.7 -3 1.7 c -4 -0.1 -8 -0.1 -12 0 c -1.3 0 -2 -0.5 -2.8 -1.5 c -3.8 -5.4 -9.6 -5.8 -13.9 -1 c -1.2 1.3 -2.7 1 -2.9 -0.9 c -0.6 -5.5 0 -10.8 2.4 -15.8 c 0.7 -1.4 2.1 -1.7 3.6 -1.7 C 11.5 11.9 16.4 11.9 21.4 11.9 Z" /><!-- Generator: Adobe Illustrator 22.1.0, SVG Export Plug-In . SVG Version: 6.00 Build 0)  -->
<path class="st0" d="M 10.3 30.8 c 2.2 0.1 4.2 2.1 4.1 4.3 c 0 2.3 -2.2 4.3 -4.5 4.2 c -2.4 -0.1 -4 -2 -3.9 -4.4 C 6.1 32.6 8.1 30.7 10.3 30.8 Z" />
<path class="st0" d="M 46.5 35.1 c 0 2.2 -1.9 4.1 -4.2 4.2 c -2.3 0 -4.2 -1.9 -4.3 -4.1 c 0 -2.4 2 -4.4 4.3 -4.4 C 44.6 30.8 46.5 32.8 46.5 35.1 Z" />
</g>
</svg>