<?xml version="1.0" encoding="utf-8"?>
<!-- Generator: Adobe Illustrator 22.1.0, SVG Export Plug-In . SVG Version: 6.00 Build 0)  -->
<svg version="1.1" id="Layer_1" xmlns="http://www.w3.org/2000/svg" xmlns:xlink="http://www.w3.org/1999/xlink" x="0px" y="0px"
	 viewBox="0 0 52 52" style="enable-background:new 0 0 52 52;" xml:space="preserve">
<style type="text/css">
	.st0{fill:#6E8AAE;}
</style>
<g>
	<g>
		<path class="st0" d="M21.5,12.3c4.7,0,9.4,0.1,14.1,0c1.7,0,3,0.4,3.7,1.9c1.9,4.1,5.5,6,9.7,6.9c2.2,0.5,2.7,1.6,2.5,3.5
			c-0.2,1.7,0,3.4-0.2,5.1c0,0.6-0.3,1.3-1,1.6c-0.8,0.3-1.1-0.4-1.6-0.9c-4.6-5-10.1-4.7-13.8,0.9C34.2,32.5,33.4,33,32,33
			c-4-0.1-7.9-0.1-11.9,0c-1.3,0-2-0.5-2.7-1.5c-3.7-5.3-9.5-5.7-13.8-1c-1.2,1.3-2.7,1-2.8-0.8c-0.6-5.4,0-10.7,2.4-15.7
			c0.7-1.4,2.1-1.7,3.6-1.7C11.7,12.3,16.6,12.3,21.5,12.3z"/>
		<path class="st0" d="M10.5,30.9c2.2,0.1,4.1,2.1,4.1,4.3c0,2.3-2.2,4.2-4.5,4.1c-2.3-0.1-3.9-1.9-3.9-4.3
			C6.3,32.8,8.3,30.9,10.5,30.9z"/>
		<path class="st0" d="M46.3,35.2c0,2.2-1.9,4.1-4.1,4.1c-2.2,0-4.2-1.8-4.2-4c0-2.3,2-4.4,4.3-4.3C44.4,31,46.3,33,46.3,35.2z"/>
	</g>
</g>
</svg>
